# xmcd
#
# Track frame offsets: 
#        150
#        12682
#        20548
#        34334
#        47234
#
# Disc length: 836 seconds
#
# Revision: 1
# Processed by: cddbd v1.5.2PL0 Copyright (c) Steve Scherf et al.
# Submitted via: ExactAudioCopy v0.99pb5
#
DISCID=3f034205
DTITLE=Joe Buck and Sean Wheeler - Buck and Wheeler
DYEAR=2008
DGENRE=Hellbilly Rock
TTITLE0=Let Me Be
TTITLE1=Crow and Christmas Tree
TTITLE2=Blood Bled Bleed
TTITLE3=Ol' Ether E
TTITLE4=Raindrop and Clapping Hands
EXTD=
EXTT0=
EXTT1=
EXTT2=
EXTT3=
EXTT4=
PLAYORDER=
